<svg xmlns="http://www.w3.org/2000/svg" width="64" height="64" fill="none" viewBox="0 0 24 24"><path fill="#745C96" fill-rule="evenodd" d="M19.5 8.274a.5.5 0 0 1-.264.45l-2.638 1.41 2.622 1.28a.5.5 0 0 1 .016.89l-2.638 1.412 2.622 1.28a.5.5 0 0 1 .016.89l-6.529 3.492a1.5 1.5 0 0 1-1.414 0l-6.529-3.492a.5.5 0 0 1 .017-.89l2.621-1.28-2.638-1.411a.5.5 0 0 1 .017-.89l2.621-1.28-2.638-1.411a.5.5 0 0 1 .017-.89l6.56-3.205a1.5 1.5 0 0 1 1.317 0l6.562 3.204a.5.5 0 0 1 .28.44ZM8.49 14.297l-2.392 1.168 5.666 3.03a.5.5 0 0 0 .472 0l5.666-3.03-2.392-1.168-2.803 1.5a1.5 1.5 0 0 1-1.414 0l-2.803-1.5Zm4.217-2.082 2.803-1.499 2.392 1.168-5.666 3.03a.5.5 0 0 1-.472 0l-5.666-3.03 2.392-1.168 2.803 1.5a1.5 1.5 0 0 0 1.415 0Zm5.195-3.912L12.22 5.528a.5.5 0 0 0-.438 0L6.098 8.303l5.666 3.03a.5.5 0 0 0 .472 0l5.666-3.03Z" clip-rule="evenodd"/></svg>