<svg xmlns="http://www.w3.org/2000/svg" width="80" height="80" version="1.0" viewBox="0 0 375 375"><path fill="#94949b" d="M294.563 86.625c-1.125 0-2.25-.375-3-1.125-1.5-1.5-1.5-4.125 0-5.625L335.063 36c3-3 4.875-7.125 4.875-11.625s-1.875-8.625-4.875-11.625-7.125-4.875-11.625-4.875-8.625 1.875-11.625 4.875l-43.5 43.875c-1.5 1.5-4.125 1.5-5.625 0s-1.5-4.125 0-5.625l43.5-43.875c4.5-4.5 10.875-7.125 17.25-7.125s12.75 2.625 17.25 7.125 7.125 10.875 7.125 17.25-2.625 12.75-7.125 17.25l-43.5 43.875c-.75.75-1.875 1.125-2.625 1.125Zm0 0"/><path fill="#94949b" d="M270.563 100.125c-1.125 0-2.25-.375-3-1.125l-18.375-18.375c-1.125-1.125-1.5-3.375-.75-4.875l13.5-23.625c1.125-1.875 3.75-2.625 5.625-1.5s2.625 3.75 1.5 5.625l-12 21 14.25 14.25 16.125-9-10.5-10.5c-1.5-1.5-1.5-4.125 0-5.625s4.125-1.5 5.625 0L297.188 81c.75.75 1.5 2.25 1.125 3.375 0 1.125-.75 2.25-1.875 3l-23.625 13.5c-.75-1.125-1.5-.75-2.25-.75Zm0 0"/><path fill="#94949b" d="M170.438 172.125c-3 0-6 0-9-.375-1.5 0-3-1.125-3.375-2.625s0-3 1.125-4.125l90-90c1.5-1.5 4.125-1.5 5.625 0s1.5 4.125 0 5.625l-83.25 83.25c53.25-.75 86.25-52.875 95.625-69.75 1.125-1.875 3.75-2.625 5.625-1.5s2.625 3.75 1.5 5.625c-9.75 17.625-45.75 73.875-103.875 73.875ZM163.688 235.875c-85.125 0-122.625-35.625-124.125-37.125s-1.5-4.125 0-5.625 4.124-1.5 5.624 0c.376.375 37.126 34.875 118.5 34.875 81.375 0 118.125-34.5 118.5-34.875 1.5-1.5 4.125-1.5 5.625 0s1.5 4.125 0 5.625-39.375 37.125-124.125 37.125Zm0 0"/><path fill="#94949b" d="M163.688 316.125h-.375c-4.875 0-9-1.875-12-5.625-24-29.625-43.875-39-69-51-14.25-6.75-30.75-14.625-50.25-27.375-1.876-1.125-2.25-3.75-1.126-5.625 1.125-1.875 3.75-2.25 5.625-1.125 18.75 12.375 34.876 20.25 49.126 27 25.124 12 46.5 22.125 72 53.25 1.875 2.25 4.5 2.625 6 2.625s4.125-.375 6-2.625c25.125-31.125 46.875-41.25 72-53.25 14.25-6.75 30.375-14.25 49.125-27 1.875-1.125 4.5-.75 5.625 1.125s.75 4.5-1.125 5.625c-19.5 12.75-35.625 20.625-50.25 27.375-25.125 12-45 21.375-69 51-3 3.375-7.5 5.625-12.375 5.625Zm0 0"/><path fill="#94949b" d="M163.688 375c-2.25 0-4.125-1.875-4.125-4.125V312c0-2.25 1.875-4.125 4.125-4.125s4.125 1.875 4.125 4.125v58.875c0 2.25-1.875 4.125-4.125 4.125ZM65.063 375c-1.5 0-2.626-.75-3.376-1.875-22.874-38.25-34.5-79.5-34.124-123 0-27 7.125-54 20.25-80.25 4.124-8.25 7.874-16.875 10.874-25.125L64.314 126c13.124-56.25-9.376-92.25-9.376-92.25-1.124-1.875-.75-4.5 1.126-5.625 1.874-1.125 4.5-.75 5.624 1.125 1.126 1.5 24.376 39 10.5 99l-5.624 19.125c-3 9-6.75 17.625-11.25 26.25-12.75 25.125-19.5 51-19.5 76.875 0 41.625 10.874 81.75 33 118.5 1.124 1.875.374 4.5-1.5 5.625-.75.375-1.5.375-2.25.375ZM261.938 375c-.75 0-1.5 0-2.25-.75-1.875-1.125-2.625-3.75-1.5-5.625 22.125-36.75 33.375-76.875 33-118.5 0-25.875-6.75-51.75-19.5-76.875-4.5-8.625-8.25-17.25-11.25-25.875-.75-2.25.375-4.5 2.625-5.25s4.5.375 5.25 2.625c3 8.25 6.75 16.875 10.875 25.125 13.5 26.25 20.25 53.25 20.25 80.25 0 43.5-11.25 84.75-34.125 123-.75 1.125-1.875 1.875-3.375 1.875ZM162.188 150c-2.25 0-4.125-1.875-4.125-4.125V126.75c0-2.25 1.875-4.125 4.125-4.125s4.125 1.875 4.125 4.125v19.5c0 2.25-1.875 3.75-4.125 3.75Zm0-46.5c-2.25 0-4.125-1.875-4.125-4.125V80.25c0-2.25 1.875-4.125 4.125-4.125s4.125 1.875 4.125 4.125v19.125c0 2.25-1.875 4.125-4.125 4.125Zm0-46.5c-2.25 0-4.125-1.875-4.125-4.125v-16.5c0-2.25 1.875-4.125 4.125-4.125s4.125 1.875 4.125 4.125v16.5c0 2.25-1.875 4.125-4.125 4.125Zm0 0"/></svg>