<svg xmlns="http://www.w3.org/2000/svg" xml:space="preserve" width="64" height="64" fill="#745C96" viewBox="0 0 333.045 333.045"><path d="M192.438 333.045h-51.696l-.181-.002H81.308a8 8 0 0 1 0-16h51.434v-35.294c-33.039-8.95-61.379-30.861-78.433-61.673H34.245a8 8 0 0 1 0-16h99.979a8 8 0 0 1 0 16h-1.646c10.283 5.651 21.883 8.646 34.012 8.646 36.344 0 66.382-27.521 70.369-62.817h-3.408a8 8 0 0 1 0-16h3.408c-3.987-35.295-34.025-62.816-70.369-62.816-6.703 0-13.31.93-19.675 2.768l-1.729 7.819 7.229 1.632a8 8 0 0 1-3.521 15.607l-7.163-1.616-5.137 23.225 7.062 1.594a8 8 0 0 1-3.521 15.607l-14.676-3.312a11.234 11.234 0 0 1-.157-.034l-50.429-11.38a4.896 4.896 0 0 1-.174-.041l-14.66-3.309a7.999 7.999 0 1 1 3.521-15.607l6.997 1.579 5.137-23.226-6.897-1.557a7.999 7.999 0 0 1-6.043-9.564 7.997 7.997 0 0 1 9.564-6.043l6.832 1.542 16.919-76.5a8 8 0 0 1 9.573-6.076l50.427 11.381a8 8 0 0 1 6.05 9.531l-1.908 8.629a130.56 130.56 0 0 1 6.379-.157c68.073 0 123.938 53.278 128.081 120.325h4.13a8 8 0 0 1 0 16h-4.13c-3.431 55.512-42.318 101.585-94.232 115.797v35.341h51.436a8 8 0 0 1 0 16H192.62l-.182.001zm-43.696-16.002h35.696v-30.812h-35.696v30.812zm-75.735-96.967c20.69 31.236 55.458 50.155 93.582 50.155 59.25 0 107.932-46.105 112.045-104.326h-25.592c-4.051 44.136-41.278 78.817-86.453 78.817-22.919 0-44.302-8.726-60.595-24.646H73.007zm180.036-70.171h25.592C274.521 91.686 225.839 45.58 166.589 45.58c-3.329 0-6.669.146-9.979.438l-5.864 26.515a87.332 87.332 0 0 1 15.844-1.443c45.174-.001 82.402 34.681 86.453 78.815zM86.166 125.144l34.82 7.857 5.137-23.225-34.82-7.858-5.137 23.226zm8.591-38.849 34.82 7.858 12.574-56.855c.037-.211.084-.42.138-.625l2.486-11.242-34.819-7.858-15.199 68.722z"/></svg>